<?xml version="1.0" encoding="utf-8"?>
<svg id="svg2" viewBox="162.563 212.934 340.871 308.241" xmlns="http://www.w3.org/2000/svg">
  <desc>Source: openclipart.org/detail/209545</desc>
  <path style="stroke: rgb(0, 0, 0);" d="M 497.419 220.026 C 494.853 220.026 477.663 218.031 475.668 220.026 C 466.218 229.475 469.874 246.426 461.93 254.37 C 459.259 257.041 448.574 251.699 445.903 254.37 C 441.904 258.369 443.649 265.783 440.179 269.252 C 434.341 275.09 429.47 264.673 424.151 264.673 C 420.222 264.673 417.362 268.64 413.848 270.397 C 408.356 273.143 393.816 270.397 387.518 270.397 C 366.259 270.397 345.466 272.687 324.553 272.687 C 322.452 272.687 290.208 272.687 290.208 272.687 C 290.208 272.687 295.106 295.901 295.933 296.728 C 303.706 304.502 335.578 286.001 342.87 293.293 C 346.388 296.812 353.109 301.436 350.884 305.886 C 348.858 309.937 318.829 316.189 318.829 316.189 C 318.829 316.189 342.286 319.04 342.87 319.624 C 347.173 323.927 341.247 327.827 342.87 331.072 C 345.002 335.337 379.754 354.861 364.621 369.996 C 362.151 372.466 351.986 371.14 347.449 371.14 C 331.422 371.14 315.395 371.14 299.367 371.14 C 293.969 371.14 289.35 368.851 284.485 368.851 C 283.971 368.851 277.616 367.137 277.616 367.706 C 277.616 383.167 294.436 389.105 301.657 396.326 C 302.085 396.754 302.085 406.201 301.657 406.629 C 296.604 411.682 295.477 424.257 290.209 429.526 C 284.906 434.828 266.854 417.392 257.009 427.236 C 254.529 429.716 259.49 439.638 257.009 442.118 C 252.064 447.064 246.706 443.093 246.706 454.711 C 246.706 458.909 249.377 478.371 246.706 481.042 C 243.293 484.455 232.968 471.636 232.968 476.463 C 232.968 485.567 231.546 501.215 223.81 505.083 C 220.842 506.567 215.701 505.178 213.507 507.373 C 210.034 510.845 213.411 517.771 210.072 521.11"/>
  <path style="stroke: rgb(0, 0, 0);" d="M 203.203 521.11 L 499.709 519.934 L 496.179 216.59 L 203.203 521.11 Z"/>
  <rect x="481.39" y="238.214" width="21.751" height="282.766" style="stroke: rgb(0, 0, 0);"/>
  <path style="stroke: rgb(0, 0, 0);" d="M 494.49 225.166 L 506.517 208.322 L 507.72 267.274 L 453.596 348.686 L 412.701 369.74"/>
</svg>