<?xml version="1.0" encoding="utf-8"?>
<svg id="svg2" viewBox="0 0 387.81 383.8" xmlns="http://www.w3.org/2000/svg" style="">
  <desc>Source: openclipart.org/detail/209545</desc>
  <defs>
    <path id="path-0" style="fill: none;" d="M 203.295 200.953 C 249.844 206.313 271.943 279.353 294.786 302.195 L 295.931 302.195"/>
    <radialGradient gradientUnits="userSpaceOnUse" cx="200.913" cy="203.17" r="210.644" id="gradient-1">
      <stop offset="0" style="stop-color: rgb(23.137% 81.176% 44.314%)"/>
      <stop offset="1" style="stop-color: rgb(0% 48.624% 17.839%)"/>
    </radialGradient>
    <radialGradient gradientUnits="userSpaceOnUse" cx="200.913" cy="203.17" r="210.644" id="gradient-0">
      <stop offset="0" style="stop-color: rgb(74.902% 17.647% 71.765%)"/>
      <stop offset="1" style="stop-color: rgb(51.8% 0% 50.033%)"/>
    </radialGradient>
    <path id="path-1" style="fill: none;" d="M 203.295 200.953 C 249.844 206.313 271.943 279.353 294.786 302.195 L 295.931 302.195"/>
    <view id="view-1" viewBox="452.768 462.467 5.724 4.579">
      <title>View 1</title>
    </view>
  </defs>
  <rect x="-9.731" y="-21.783" width="421.287" height="449.906" style="stroke: url(&quot;#gradient-1&quot;); fill-rule: evenodd; fill: url(&quot;#gradient-0&quot;); pointer-events: none;"/>
  <ellipse style="stroke-width: 1; stroke: rgb(255, 255, 255); fill: rgb(255, 255, 255); transform-origin: 191.056px 198.55px;" cx="264.952" cy="96.887" rx="41.239" ry="30.597" transform="matrix(0.92647, -0.376369, 0.376369, 0.92647, -0.000075, 0.000103)"/>
  <ellipse style="stroke-width: 1; stroke: rgb(255, 255, 255); fill: rgb(255, 255, 255); transform-origin: 191.056px 198.55px;" cx="241.45" cy="158.08" rx="45.23" ry="26.163" transform="matrix(0.92647, -0.376369, 0.376369, 0.92647, -0.000075, 0.000103)"/>
  <ellipse style="stroke-width: 1; stroke: rgb(255, 255, 255); fill: rgb(255, 255, 255); transform-origin: 191.056px 198.55px;" cx="132.809" cy="302.639" rx="31.484" ry="33.257" transform="matrix(0.92647, -0.376369, 0.376369, 0.92647, -0.000086, 0.000106)"/>
  <path style="stroke-width: 1; stroke: rgb(255, 255, 255); fill: rgb(255, 255, 255); transform-origin: 191.056px 198.55px;" d="M 148.264 271.413 C 148.264 271.413 184.126 344.011 215.459 176.403 L 281.585 162.958 C 281.585 162.958 237.379 329.67 188.451 331.463" transform="matrix(0.92647, -0.376369, 0.376369, 0.92647, 0.000004, 0.000001)"/>
  <path style="stroke-width: 1; stroke: rgb(255, 255, 255); fill: rgb(255, 255, 255); transform-origin: 191.056px 198.55px;" d="M 94.229 311.953 C 94.229 311.953 131.091 387.833 212.183 319.036" transform="matrix(0.92647, -0.376369, 0.376369, 0.92647, 0.000004, 0.000001)"/>
  <rect x="143.008" y="291.554" width="49.665" height="33.701" style="stroke-width: 1; stroke: rgb(255, 255, 255); fill: rgb(255, 255, 255); transform-origin: 191.056px 198.55px;" transform="matrix(0.92647, -0.376369, 0.376369, 0.92647, -0.000088, 0.000097)"/>
  <ellipse style="stroke: rgb(0, 208, 255); fill: rgb(0, 208, 255); transform-origin: 191.056px 198.55px;" cx="244.11" cy="79.819" rx="41.239" ry="30.597" transform="matrix(0.92647, -0.376369, 0.376369, 0.92647, -0.000075, 0.000103)"/>
  <ellipse style="stroke: rgb(0, 208, 255); fill: rgb(0, 208, 255); transform-origin: 191.056px 198.55px;" cx="220.608" cy="141.012" rx="45.23" ry="26.163" transform="matrix(0.92647, -0.376369, 0.376369, 0.92647, -0.000075, 0.000103)"/>
  <ellipse style="stroke: rgb(0, 208, 255); fill: rgb(0, 208, 255); transform-origin: 191.056px 198.55px;" cx="109.686" cy="285.571" rx="33.765" ry="33.257" transform="matrix(0.92647, -0.376369, 0.376369, 0.92647, -0.000086, 0.000106)"/>
  <path style="stroke: rgb(0, 208, 255); fill: rgb(0, 208, 255); transform-origin: 191.056px 198.55px;" d="M 123.875 255.293 C 123.875 255.293 161.883 326.745 195.093 161.783 L 265.177 148.551 C 265.177 148.551 218.325 312.631 166.467 314.395" transform="matrix(0.92647, -0.376369, 0.376369, 0.92647, 0.000004, 0.000001)"/>
  <path style="stroke: rgb(0, 208, 255); fill: rgb(0, 208, 255); transform-origin: 191.056px 198.55px;" d="M 77.442 292.794 C 77.442 292.794 113.313 365.597 192.229 299.59" transform="matrix(0.92647, -0.376369, 0.376369, 0.92647, 0.000004, 0.000001)"/>
  <rect x="122.166" y="274.486" width="49.665" height="33.701" style="stroke: rgb(0, 208, 255); fill: rgb(0, 208, 255); transform-origin: 191.056px 198.55px;" transform="matrix(0.92647, -0.376369, 0.376369, 0.92647, -0.000088, 0.000097)"/>
  <rect x="518.737" y="129.02" width="209.827" height="5.288" style="fill: rgb(255, 255, 255); stroke: rgb(255, 255, 255); transform-origin: 599.244px 101.324px;" transform="matrix(0.198485, -0.980104, 0.719773, 1.483982, -408.187233, 97.226493)"/>
  <rect x="518.737" y="129.02" width="209.827" height="5.288" style="fill: rgb(255, 255, 255); stroke: rgb(255, 255, 255); stroke-width: 1; transform-origin: 621.129px 100.953px;" transform="matrix(0.198485, -0.980104, 0.719773, 1.483982, -430.073639, 97.597229)"/>
  <rect x="518.737" y="129.02" width="209.827" height="5.288" style="fill: rgb(255, 255, 255); stroke: rgb(255, 255, 255); stroke-width: 1; transform-origin: 598.678px 100.901px;" transform="matrix(0.198485, -0.980104, 0.719773, 1.483982, -407.621894, 97.649216)"/>
  <rect x="483.887" y="148.498" width="195.73" height="6.087" style="fill: rgb(255, 255, 255); stroke: rgb(255, 255, 255); stroke-width: 1; transform-origin: 547.85px 104.941px;" transform="matrix(0.198485, -0.980104, 0.719773, 1.483982, -356.793683, 93.609388)"/>
</svg>