<?xml version="1.0" encoding="utf-8"?>
<svg id="svg2" viewBox="114.529 206.155 395.492 359.334" xmlns="http://www.w3.org/2000/svg">
  <desc>Source: openclipart.org/detail/209545</desc>
  <defs>
    <path id="path-0" style="fill: none;" d="M 183.248 279.684 L 200.427 285.41 C 207.237 288.815 221.924 302.59 229.06 302.59"/>
    <path id="path-1" style="fill: none;" d="M 221.90166356159858 311.1793035812828 L 265.70763867760456 321.48673061721513"/>
    <path id="path-2" style="fill: none;" d="M 229.06 291.137 L 239.081 295.432 C 246.303 299.765 257.163 309.094 263.419 311.179"/>
    <path id="path-3" style="fill: none;" d="M 213.312 286.842 L 227.628 301.158 C 233.716 310.29 239.948 317.772 247.671 325.496"/>
    <path id="path-4" style="fill: none;" d="M 260.55554542007934 354.12801265772123 L 303.606519405218 341.2126810477155"/>
    <path id="path-5" style="fill: none;" d="M 203.295 200.953 C 249.844 206.313 271.943 279.353 294.786 302.195 L 295.931 302.195"/>
    <path id="path-6" style="fill: none;" d="M 203.295 200.953 C 249.844 206.313 271.943 279.353 294.786 302.195 L 295.931 302.195"/>
    <path id="path-7" style="fill: none;" d="M 203.295 200.953 C 249.844 206.313 271.943 279.353 294.786 302.195 L 295.931 302.195"/>
    <path id="path-8" style="fill: none;" d="M 203.295 200.953 C 249.844 206.313 271.943 279.353 294.786 302.195 L 295.931 302.195"/>
    <path id="path-9" style="fill: none;" d="M 183.248 279.684 L 200.427 285.41 C 207.237 288.815 221.924 302.59 229.06 302.59"/>
    <path id="path-10" style="fill: none;" d="M 221.90166356159858 311.1793035812828 L 265.70763867760456 321.48673061721513"/>
    <path id="path-11" style="fill: none;" d="M 229.06 291.137 L 239.081 295.432 C 246.303 299.765 257.163 309.094 263.419 311.179"/>
    <path id="path-12" style="fill: none;" d="M 213.312 286.842 L 227.628 301.158 C 233.716 310.29 239.948 317.772 247.671 325.496"/>
    <path id="path-13" style="fill: none;" d="M 260.55554542007934 354.12801265772123 L 303.606519405218 341.2126810477155"/>
    <path id="path-14" style="fill: none;" d="M 203.295 200.953 C 249.844 206.313 271.943 279.353 294.786 302.195 L 295.931 302.195"/>
    <path id="path-15" style="fill: none;" d="M 203.295 200.953 C 249.844 206.313 271.943 279.353 294.786 302.195 L 295.931 302.195"/>
    <path id="path-16" style="fill: none;" d="M 203.295 200.953 C 249.844 206.313 271.943 279.353 294.786 302.195 L 295.931 302.195"/>
    <path id="path-17" style="fill: none;" d="M 203.295 200.953 C 249.844 206.313 271.943 279.353 294.786 302.195 L 295.931 302.195"/>
  </defs>
  <ellipse style="stroke-width: 1; stroke: rgb(255, 255, 255); fill: rgb(255, 255, 255);" cx="345.021" cy="388.169" rx="163.659" ry="56.271" transform="matrix(0.984602, -0.174812, 0, 1.015639, -10.8521, 26.087308)"/>
  <path style="stroke-width: 1; stroke: rgb(255, 255, 255); fill: rgb(255, 255, 255);" d="M 169.765 370.652 C 169.765 370.652 45.776 539.332 249.621 550.007 C 453.466 560.683 470.278 453.924 470.278 453.924 C 470.278 453.924 457.668 406.951 411.437 438.978 C 365.205 471.005 260.128 513.709 241.216 492.357 C 222.303 471.003 266.433 441.114 266.433 441.114"/>
  <path style="stroke-width: 1; stroke: rgb(255, 255, 255); fill: rgb(255, 255, 255);" d="M 482.836 322.627 C 482.836 322.627 505.741 334.08 494.289 378.46 C 482.837 422.84 263.798 441.451 263.798 441.451 L 229.439 418.546"/>
  <ellipse style="stroke-width: 1; stroke: rgb(255, 255, 255); fill: rgb(255, 255, 255);" cx="345.021" cy="388.169" rx="88.595" ry="33.73" transform="matrix(0.982974, -0.183744, 0, 1.017321, 0.031484, 30.406371)"/>
  <path style="stroke-width: 1; stroke: rgb(255, 255, 255); fill: rgb(255, 255, 255);" d="M 412.665 331.751 C 412.665 331.751 426.514 337.67 419.59 360.608 C 412.666 383.545 280.24 393.164 280.24 393.164 L 259.466 381.326"/>
  <ellipse style="stroke: rgb(0, 208, 255); fill: rgb(0, 208, 255);" cx="345.021" cy="388.169" rx="163.659" ry="56.271" transform="matrix(0.984602, -0.174812, 0, 1.015639, -26.980438, 2.8677)"/>
  <path style="stroke: rgb(0, 208, 255); fill: rgb(0, 208, 255);" d="M 158.73 347.432 C 158.73 347.432 36.843 513.43 237.233 523.936 C 437.623 534.442 454.15 429.38 454.15 429.38 C 454.15 429.38 441.754 383.154 396.306 414.672 C 350.858 446.19 247.562 488.215 228.97 467.202 C 210.378 446.188 253.76 416.774 253.76 416.774"/>
  <path style="stroke: rgb(0, 208, 255); fill: rgb(0, 208, 255);" d="M 466.708 299.407 C 466.708 299.407 489.613 310.86 478.161 355.24 C 466.709 399.62 247.67 418.231 247.67 418.231 L 213.311 395.326"/>
  <ellipse style="stroke-width: 1; fill: rgb(255, 255, 255); stroke: rgb(255, 255, 255);" cx="345.021" cy="388.169" rx="88.595" ry="33.73" transform="matrix(0.982974, -0.183744, 0, 1.017321, -16.096453, 7.186498)"/>
  <path style="stroke-width: 1; fill: rgb(255, 255, 255); stroke: rgb(255, 255, 255);" d="M 396.537 308.531 C 396.537 308.531 410.386 314.45 403.462 337.388 C 396.538 360.325 264.112 369.944 264.112 369.944 L 243.338 358.106"/>
  <rect x="372.42" y="252.669" width="21.383" height="244.806" style="fill: rgb(255, 255, 255); stroke: rgb(255, 255, 255);" transform="matrix(1, 0, -0.978719, 1, 266.008118, 18.105154)"/>
  <rect x="364.455" y="161.058" width="20.926" height="156.046" style="fill: rgb(255, 255, 255); stroke: rgb(255, 255, 255); stroke-width: 1;" transform="matrix(1, 0, -0.978719, 1, 219.12709, 233.552292)"/>
</svg>