<?xml version="1.0" encoding="utf-8"?>
<svg id="svg2" viewBox="37.222 204.721 361.132 261.988" xmlns="http://www.w3.org/2000/svg" xmlns:bx="https://boxy-svg.com">
  <desc>Source: openclipart.org/detail/209545</desc>
  <defs>
    <path id="path-0" style="fill: none;" d="M 183.248 279.684 L 200.427 285.41 C 207.237 288.815 221.924 302.59 229.06 302.59"/>
    <path id="path-1" style="fill: none;" d="M 221.90166356159858 311.1793035812828 L 265.70763867760456 321.48673061721513"/>
    <path id="path-2" style="fill: none;" d="M 229.06 291.137 L 239.081 295.432 C 246.303 299.765 257.163 309.094 263.419 311.179"/>
    <path id="path-3" style="fill: none;" d="M 213.312 286.842 L 227.628 301.158 C 233.716 310.29 239.948 317.772 247.671 325.496"/>
    <path id="path-4" style="fill: none;" d="M 260.55554542007934 354.12801265772123 L 303.606519405218 341.2126810477155"/>
    <path id="path-5" style="fill: none;" d="M 203.295 200.953 C 249.844 206.313 271.943 279.353 294.786 302.195 L 295.931 302.195"/>
    <path id="path-6" style="fill: none;" d="M 203.295 200.953 C 249.844 206.313 271.943 279.353 294.786 302.195 L 295.931 302.195"/>
    <path id="path-7" style="fill: none;" d="M 203.295 200.953 C 249.844 206.313 271.943 279.353 294.786 302.195 L 295.931 302.195"/>
    <path id="path-8" style="fill: none;" d="M 203.295 200.953 C 249.844 206.313 271.943 279.353 294.786 302.195 L 295.931 302.195"/>
    <path id="path-9" style="fill: none;" d="M 183.248 279.684 L 200.427 285.41 C 207.237 288.815 221.924 302.59 229.06 302.59"/>
    <path id="path-10" style="fill: none;" d="M 221.90166356159858 311.1793035812828 L 265.70763867760456 321.48673061721513"/>
    <path id="path-11" style="fill: none;" d="M 229.06 291.137 L 239.081 295.432 C 246.303 299.765 257.163 309.094 263.419 311.179"/>
    <path id="path-12" style="fill: none;" d="M 213.312 286.842 L 227.628 301.158 C 233.716 310.29 239.948 317.772 247.671 325.496"/>
    <path id="path-13" style="fill: none;" d="M 260.55554542007934 354.12801265772123 L 303.606519405218 341.2126810477155"/>
    <path id="path-14" style="fill: none;" d="M 203.295 200.953 C 249.844 206.313 271.943 279.353 294.786 302.195 L 295.931 302.195"/>
    <path id="path-15" style="fill: none;" d="M 203.295 200.953 C 249.844 206.313 271.943 279.353 294.786 302.195 L 295.931 302.195"/>
    <path id="path-16" style="fill: none;" d="M 203.295 200.953 C 249.844 206.313 271.943 279.353 294.786 302.195 L 295.931 302.195"/>
    <path id="path-17" style="fill: none;" d="M 203.295 200.953 C 249.844 206.313 271.943 279.353 294.786 302.195 L 295.931 302.195"/>
  </defs>
  <ellipse style="stroke-width: 1; stroke: rgb(255, 255, 255); fill: rgb(255, 255, 255); transform-origin: 366.954px 449.585px;" cx="244.092" cy="362.717" rx="48.415" ry="29.601" transform="matrix(0.933017, -0.359831, -0.131529, 1.122517, -153.248165, -108.792171)"/>
  <path style="stroke-width: 1; stroke: rgb(255, 255, 255); fill: rgb(255, 255, 255); transform-origin: 220.869px 328.255px;" transform="matrix(0.998811, -0.04875, -0.146335, 1.008333, -7.164222, 12.538539)" d="M 89.068 256.428 H 158.54 V 426.828 A 19 19 0 0 1 139.54 445.828 H 108.068 A 19 19 0 0 1 89.068 426.828 V 256.428 Z" bx:shape="rect 89.068 256.428 69.472 189.4 0 0 19 19 1@9563d1db"/>
  <path style="stroke-width: 1; stroke: rgb(255, 255, 255); fill: rgb(255, 255, 255); transform-origin: 213.705px 340.793px;" d="M 115.622 298.074 C 115.622 298.074 220.861 185.071 265.331 293.335"/>
  <path style="stroke-width: 1; stroke: rgb(255, 255, 255); fill: rgb(255, 255, 255); transform-origin: 213.705px 340.793px;" d="M 220.978 298.641 C 220.978 298.641 340.466 162.586 389.028 293.539"/>
  <path style="stroke-width: 1; stroke: rgb(255, 255, 255); fill: rgb(255, 255, 255); transform-origin: 263.318px 323.058px;" transform="matrix(0.998811, -0.04875, -0.146335, 1.008333, -49.613202, 17.735004)" d="M 244.699 276.67 H 316.995 V 422.491 A 19 19 0 0 1 297.995 441.491 H 263.699 A 19 19 0 0 1 244.699 422.491 V 276.67 Z" bx:shape="rect 244.699 276.67 72.296 164.821 0 0 19 19 1@dbd2e0cc"/>
  <path style="stroke-width: 1; stroke: rgb(255, 255, 255); fill: rgb(255, 255, 255); transform-origin: 256.227px 350.121px;" transform="matrix(0.998811, -0.04875, -0.146335, 1.008333, -42.52201, -9.327949)" d="M 368.023 302.706 H 408.278 A 19 19 0 0 1 427.278 321.706 V 443.406 A 19 19 0 0 1 408.278 462.406 H 376.023 A 19 19 0 0 1 357.023 443.406 V 313.706 A 11 11 0 0 1 368.023 302.706 Z" bx:shape="rect 357.023 302.706 70.255 159.7 11 19 19 19 1@5bf3c33b"/>
  <path style="stroke-width: 1; stroke: rgb(255, 255, 255); fill: rgb(255, 255, 255); transform-origin: 213.705px 340.793px;" d="M 146.267 332.032 C 146.267 332.032 184.473 289.368 218.563 327.903 C 252.654 366.438 223.948 278.438 223.948 278.438 L 145.581 285.806 L 157.973 308.231"/>
  <path style="stroke-width: 1; stroke: rgb(255, 255, 255); fill: rgb(255, 255, 255); transform-origin: 213.705px 340.793px;" d="M 259.064 329.015 C 259.064 329.015 297.271 286.351 331.361 324.887 C 365.451 363.422 336.746 275.422 336.746 275.422 L 258.378 282.79 L 270.771 305.215"/>
  <ellipse style="stroke: rgb(0, 208, 255); fill: rgb(0, 208, 255); transform-origin: 382.444px 464.456px;" cx="244.092" cy="362.717" rx="50.787" ry="28.949" transform="matrix(0.933017, -0.359831, -0.131529, 1.122517, -168.738766, -123.663399)"/>
  <path style="stroke: rgb(0, 208, 255); fill: rgb(0, 208, 255); transform-origin: 204.849px 339.953px;" transform="matrix(0.998811, -0.04875, -0.146335, 1.008333, 8.856777, 0.840395)" d="M 70.879 256.428 H 126.165 V 426.828 A 19 19 0 0 1 107.165 445.828 H 89.879 A 19 19 0 0 1 70.879 426.828 V 256.428 Z" bx:shape="rect 70.879 256.428 55.286 189.4 0 0 19 19 1@7557b4ed"/>
  <path style="stroke: rgb(0, 208, 255); fill: rgb(0, 208, 255); transform-origin: 213.705px 340.793px;" d="M 100.998 287.076 C 100.998 287.076 206.237 174.073 250.707 282.337"/>
  <path style="stroke-width: 1; stroke: rgb(0, 208, 255); fill: rgb(0, 208, 255); transform-origin: 213.705px 340.793px;" d="M 206.354 287.643 C 206.354 287.643 325.842 151.588 374.405 282.541"/>
  <path style="stroke-width: 1; stroke: rgb(0, 208, 255); fill: rgb(0, 208, 255); transform-origin: 205.088px 334.757px;" transform="matrix(0.998811, -0.04875, -0.146335, 1.008333, 8.61743, 6.036854)" d="M 187.124 276.67 H 242.41 V 422.491 A 19 19 0 0 1 223.41 441.491 H 206.124 A 19 19 0 0 1 187.124 422.491 V 276.67 Z" bx:shape="rect 187.124 276.67 55.286 164.821 0 0 19 19 1@1f994e74"/>
  <path style="stroke-width: 1; stroke: rgb(0, 208, 255); fill: rgb(0, 208, 255); transform-origin: 177.748px 361.819px;" transform="matrix(0.998811, -0.04875, -0.146335, 1.008333, 35.957292, -21.026066)" d="M 288.782 302.706 H 313.444 A 19 19 0 0 1 332.444 321.706 V 443.406 A 19 19 0 0 1 313.444 462.406 H 296.782 A 19 19 0 0 1 277.782 443.406 V 313.706 A 11 11 0 0 1 288.782 302.706 Z" bx:shape="rect 277.782 302.706 54.662 159.7 11 19 19 19 1@23598d2a"/>
  <path style="fill: rgb(0, 208, 255); stroke: rgb(0, 208, 255); transform-origin: 213.705px 340.793px;" d="M 131.643 321.034 C 131.643 321.034 169.849 278.37 203.94 316.905 C 238.03 355.44 209.325 267.44 209.325 267.44 L 130.957 274.808 L 143.35 297.233"/>
  <path style="fill: rgb(0, 208, 255); stroke: rgb(0, 208, 255); stroke-width: 1; transform-origin: 213.705px 340.793px;" d="M 244.441 318.018 C 244.441 318.018 282.647 275.353 316.737 313.889 C 350.828 352.424 322.122 264.424 322.122 264.424 L 243.755 271.792 L 256.147 294.217"/>
  <rect x="318.229" y="254.294" width="128.722" height="10.423" style="fill: rgb(255, 255, 255); stroke: rgb(255, 255, 255); stroke-width: 0.617; transform-origin: 584.222px 325.811px;" transform="matrix(0.588452, -0.808532, -0.145086, 1.898723, -370.517184, 14.982374)"/>
  <rect x="311.983" y="242.675" width="126.195" height="9.948" style="fill: rgb(255, 255, 255); stroke: rgb(255, 255, 255); stroke-width: 0.617; transform-origin: 357.679px 225.53px;" transform="matrix(0.588452, -0.808532, -0.145086, 1.898723, -143.973255, 115.261594)"/>
  <path style="fill: rgb(255, 255, 255); stroke: rgb(255, 255, 255); stroke-width: 0.617; transform-origin: 137.549px 159.017px;" transform="matrix(0.588452, -0.808532, -0.145086, 1.898723, 76.15613, 181.776098)" d="M 314.026 272.154 H 435.623 A 5.425 5.425 0 0 1 441.048 277.579 V 277.732 A 16.133 5.578 0 0 1 424.915 283.31 H 314.026 V 272.154 Z" bx:shape="rect 314.026 272.154 127.022 11.156 0 5.425 16.133 0 1@e873337f"/>
</svg>