<?xml version="1.0" encoding="utf-8"?>
<svg id="svg2" viewBox="91.663 180.306 272.214 264.887" xmlns="http://www.w3.org/2000/svg" xmlns:bx="https://boxy-svg.com">
  <desc>Source: openclipart.org/detail/209545</desc>
  <defs>
    <path id="path-0" style="fill: none;" d="M 183.248 279.684 L 200.427 285.41 C 207.237 288.815 221.924 302.59 229.06 302.59"/>
    <path id="path-1" style="fill: none;" d="M 221.90166356159858 311.1793035812828 L 265.70763867760456 321.48673061721513"/>
    <path id="path-2" style="fill: none;" d="M 229.06 291.137 L 239.081 295.432 C 246.303 299.765 257.163 309.094 263.419 311.179"/>
    <path id="path-3" style="fill: none;" d="M 213.312 286.842 L 227.628 301.158 C 233.716 310.29 239.948 317.772 247.671 325.496"/>
    <path id="path-4" style="fill: none;" d="M 260.55554542007934 354.12801265772123 L 303.606519405218 341.2126810477155"/>
    <path id="path-5" style="fill: none;" d="M 203.295 200.953 C 249.844 206.313 271.943 279.353 294.786 302.195 L 295.931 302.195"/>
    <path id="path-6" style="fill: none;" d="M 203.295 200.953 C 249.844 206.313 271.943 279.353 294.786 302.195 L 295.931 302.195"/>
    <path id="path-7" style="fill: none;" d="M 203.295 200.953 C 249.844 206.313 271.943 279.353 294.786 302.195 L 295.931 302.195"/>
    <path id="path-8" style="fill: none;" d="M 203.295 200.953 C 249.844 206.313 271.943 279.353 294.786 302.195 L 295.931 302.195"/>
    <path id="path-9" style="fill: none;" d="M 183.248 279.684 L 200.427 285.41 C 207.237 288.815 221.924 302.59 229.06 302.59"/>
    <path id="path-10" style="fill: none;" d="M 221.90166356159858 311.1793035812828 L 265.70763867760456 321.48673061721513"/>
    <path id="path-11" style="fill: none;" d="M 229.06 291.137 L 239.081 295.432 C 246.303 299.765 257.163 309.094 263.419 311.179"/>
    <path id="path-12" style="fill: none;" d="M 213.312 286.842 L 227.628 301.158 C 233.716 310.29 239.948 317.772 247.671 325.496"/>
    <path id="path-13" style="fill: none;" d="M 260.55554542007934 354.12801265772123 L 303.606519405218 341.2126810477155"/>
    <path id="path-14" style="fill: none;" d="M 203.295 200.953 C 249.844 206.313 271.943 279.353 294.786 302.195 L 295.931 302.195"/>
    <path id="path-15" style="fill: none;" d="M 203.295 200.953 C 249.844 206.313 271.943 279.353 294.786 302.195 L 295.931 302.195"/>
    <path id="path-16" style="fill: none;" d="M 203.295 200.953 C 249.844 206.313 271.943 279.353 294.786 302.195 L 295.931 302.195"/>
    <path id="path-17" style="fill: none;" d="M 203.295 200.953 C 249.844 206.313 271.943 279.353 294.786 302.195 L 295.931 302.195"/>
    <path id="path-18" style="fill: none;" d="M 183.248 279.684 L 200.427 285.41 C 207.237 288.815 221.924 302.59 229.06 302.59"/>
    <path id="path-19" style="fill: none;" d="M 221.90166356159858 311.1793035812828 L 265.70763867760456 321.48673061721513"/>
    <path id="path-20" style="fill: none;" d="M 229.06 291.137 L 239.081 295.432 C 246.303 299.765 257.163 309.094 263.419 311.179"/>
    <path id="path-21" style="fill: none;" d="M 213.312 286.842 L 227.628 301.158 C 233.716 310.29 239.948 317.772 247.671 325.496"/>
    <path id="path-22" style="fill: none;" d="M 260.55554542007934 354.12801265772123 L 303.606519405218 341.2126810477155"/>
    <path id="path-23" style="fill: none;" d="M 203.295 200.953 C 249.844 206.313 271.943 279.353 294.786 302.195 L 295.931 302.195"/>
    <path id="path-24" style="fill: none;" d="M 203.295 200.953 C 249.844 206.313 271.943 279.353 294.786 302.195 L 295.931 302.195"/>
    <path id="path-25" style="fill: none;" d="M 203.295 200.953 C 249.844 206.313 271.943 279.353 294.786 302.195 L 295.931 302.195"/>
    <path id="path-26" style="fill: none;" d="M 203.295 200.953 C 249.844 206.313 271.943 279.353 294.786 302.195 L 295.931 302.195"/>
    <path id="path-27" style="fill: none;" d="M 183.248 279.684 L 200.427 285.41 C 207.237 288.815 221.924 302.59 229.06 302.59"/>
    <path id="path-28" style="fill: none;" d="M 221.90166356159858 311.1793035812828 L 265.70763867760456 321.48673061721513"/>
    <path id="path-29" style="fill: none;" d="M 229.06 291.137 L 239.081 295.432 C 246.303 299.765 257.163 309.094 263.419 311.179"/>
    <path id="path-30" style="fill: none;" d="M 213.312 286.842 L 227.628 301.158 C 233.716 310.29 239.948 317.772 247.671 325.496"/>
    <path id="path-31" style="fill: none;" d="M 260.55554542007934 354.12801265772123 L 303.606519405218 341.2126810477155"/>
    <path id="path-32" style="fill: none;" d="M 203.295 200.953 C 249.844 206.313 271.943 279.353 294.786 302.195 L 295.931 302.195"/>
    <path id="path-33" style="fill: none;" d="M 203.295 200.953 C 249.844 206.313 271.943 279.353 294.786 302.195 L 295.931 302.195"/>
    <path id="path-34" style="fill: none;" d="M 203.295 200.953 C 249.844 206.313 271.943 279.353 294.786 302.195 L 295.931 302.195"/>
    <path id="path-35" style="fill: none;" d="M 203.295 200.953 C 249.844 206.313 271.943 279.353 294.786 302.195 L 295.931 302.195"/>
    <path id="path-36" style="fill: none;" d="M 183.248 279.684 L 200.427 285.41 C 207.237 288.815 221.924 302.59 229.06 302.59"/>
    <path id="path-37" style="fill: none;" d="M 221.90166356159858 311.1793035812828 L 265.70763867760456 321.48673061721513"/>
    <path id="path-38" style="fill: none;" d="M 229.06 291.137 L 239.081 295.432 C 246.303 299.765 257.163 309.094 263.419 311.179"/>
    <path id="path-39" style="fill: none;" d="M 213.312 286.842 L 227.628 301.158 C 233.716 310.29 239.948 317.772 247.671 325.496"/>
    <path id="path-40" style="fill: none;" d="M 260.55554542007934 354.12801265772123 L 303.606519405218 341.2126810477155"/>
    <path id="path-41" style="fill: none;" d="M 203.295 200.953 C 249.844 206.313 271.943 279.353 294.786 302.195 L 295.931 302.195"/>
    <path id="path-42" style="fill: none;" d="M 203.295 200.953 C 249.844 206.313 271.943 279.353 294.786 302.195 L 295.931 302.195"/>
    <path id="path-43" style="fill: none;" d="M 203.295 200.953 C 249.844 206.313 271.943 279.353 294.786 302.195 L 295.931 302.195"/>
    <path id="path-44" style="fill: none;" d="M 203.295 200.953 C 249.844 206.313 271.943 279.353 294.786 302.195 L 295.931 302.195"/>
    <path id="path-45" style="fill: none;" d="M 183.248 279.684 L 200.427 285.41 C 207.237 288.815 221.924 302.59 229.06 302.59"/>
    <path id="path-46" style="fill: none;" d="M 221.90166356159858 311.1793035812828 L 265.70763867760456 321.48673061721513"/>
    <path id="path-47" style="fill: none;" d="M 229.06 291.137 L 239.081 295.432 C 246.303 299.765 257.163 309.094 263.419 311.179"/>
    <path id="path-48" style="fill: none;" d="M 213.312 286.842 L 227.628 301.158 C 233.716 310.29 239.948 317.772 247.671 325.496"/>
    <path id="path-49" style="fill: none;" d="M 260.55554542007934 354.12801265772123 L 303.606519405218 341.2126810477155"/>
    <path id="path-50" style="fill: none;" d="M 203.295 200.953 C 249.844 206.313 271.943 279.353 294.786 302.195 L 295.931 302.195"/>
    <path id="path-51" style="fill: none;" d="M 203.295 200.953 C 249.844 206.313 271.943 279.353 294.786 302.195 L 295.931 302.195"/>
    <path id="path-52" style="fill: none;" d="M 203.295 200.953 C 249.844 206.313 271.943 279.353 294.786 302.195 L 295.931 302.195"/>
    <path id="path-53" style="fill: none;" d="M 203.295 200.953 C 249.844 206.313 271.943 279.353 294.786 302.195 L 295.931 302.195"/>
  </defs>
  <g id="svg-1" transform="matrix(1, 0, 0, 1, 180.940598, 154.097778)">
    <desc>Source: openclipart.org/detail/209545</desc>
    <ellipse style="stroke-width: 0.79; stroke: rgb(255, 255, 255); fill: rgb(255, 255, 255); transform-origin: 341.123px 431.322px;" cx="244.092" cy="362.717" rx="38.236" ry="23.378" transform="matrix(0.933017, -0.359831, -0.131529, 1.122517, -253.560517, -275.730095)"/>
    <path style="stroke-width: 0.79; stroke: rgb(255, 255, 255); fill: rgb(255, 255, 255); transform-origin: 174.432px 259.241px;" transform="matrix(0.998811, -0.04875, -0.146335, 1.008333, -86.870647, -103.648696)" d="M 70.342 202.515 H 125.208 V 333.094 A 19 19 0 0 1 106.208 352.094 H 89.342 A 19 19 0 0 1 70.342 333.094 V 202.515 Z" bx:shape="rect 70.342 202.515 54.866 149.579 0 0 19 19 1@ad7a35dd"/>
    <path style="stroke-width: 0.79; stroke: rgb(255, 255, 255); fill: rgb(255, 255, 255); transform-origin: 87.562px 155.591px;" d="M 10.1 121.854 C 10.1 121.854 93.213 32.609 128.334 118.111"/>
    <path style="stroke-width: 0.79; stroke: rgb(255, 255, 255); fill: rgb(255, 255, 255); transform-origin: 207.957px 255.136px;" transform="matrix(0.998811, -0.04875, -0.146335, 1.008333, -120.394915, -99.544764)" d="M 221.8 218.501 H 224.486 A 25.862 25.862 0 0 1 250.348 244.363 V 329.669 A 19 19 0 0 1 231.348 348.669 H 212.252 A 19 19 0 0 1 193.252 329.669 V 249.902 A 28.548 31.401 0 0 1 221.8 218.501 Z" bx:shape="rect 193.252 218.501 57.096 130.168 31.401 25.862 19 19 1@dc232456"/>
    <path style="stroke-width: 0.79; stroke: rgb(255, 255, 255); fill: rgb(255, 255, 255); transform-origin: 87.562px 155.591px;" d="M 34.303 148.672 C 34.303 148.672 64.476 114.978 91.399 145.411 C 118.322 175.845 95.651 106.346 95.651 106.346 L 33.761 112.165 L 43.547 129.875"/>
    <ellipse style="stroke: rgb(0, 208, 255); fill: rgb(0, 208, 255); stroke-width: 0.79; transform-origin: 353.356px 443.066px;" cx="244.092" cy="362.717" rx="40.109" ry="22.863" transform="matrix(0.933017, -0.359831, -0.131529, 1.122517, -265.794286, -287.474729)"/>
    <path style="stroke: rgb(0, 208, 255); fill: rgb(0, 208, 255); stroke-width: 0.79; transform-origin: 161.78px 268.479px;" transform="matrix(0.998811, -0.04875, -0.146335, 1.008333, -74.217996, -112.887343)" d="M 55.977 202.515 H 99.639 V 333.094 A 19 19 0 0 1 80.639 352.094 H 74.977 A 19 19 0 0 1 55.977 333.094 V 202.515 Z" bx:shape="rect 55.977 202.515 43.662 149.579 0 0 19 19 1@b679c403"/>
    <path style="stroke: rgb(0, 208, 255); fill: rgb(0, 208, 255); stroke-width: 0.79; transform-origin: 94.298px 167.759px;" d="M -1.449 119.133 C -1.449 119.133 87.954 16.839 125.732 114.843"/>
    <path style="stroke-width: 0.79; stroke: rgb(0, 208, 255); fill: rgb(0, 208, 255); transform-origin: 177.384px 278.494px;" transform="matrix(0.998811, -0.04875, -0.146335, 1.008333, -86.843342, -124.473626)" d="M 185.755 230.169 H 187.975 A 21.688 21.688 0 0 1 209.663 251.857 V 348.288 A 19 19 0 0 1 190.663 367.288 H 180.846 A 19 19 0 0 1 161.846 348.288 V 256.502 A 23.909 26.333 0 0 1 185.755 230.169 Z" bx:shape="rect 161.846 230.169 47.817 137.119 26.333 21.688 19 19 1@c58125e3"/>
    <path style="fill: rgb(0, 208, 255); stroke: rgb(0, 208, 255); stroke-width: 0.79; transform-origin: 87.562px 155.591px;" d="M 22.753 139.987 C 22.753 139.987 52.926 106.292 79.85 136.726 C 106.773 167.159 84.103 97.66 84.103 97.66 L 22.211 103.479 L 31.999 121.19"/>
    <rect x="251.323" y="200.83" width="101.659" height="8.232" style="fill: rgb(255, 255, 255); stroke: rgb(255, 255, 255); stroke-width: 0.487; transform-origin: 461.392px 257.311px;" transform="matrix(0.588452, -0.808532, -0.145086, 1.898722, -373.83042, -101.718952)"/>
    <rect x="246.39" y="191.654" width="99.663" height="7.856" style="fill: rgb(255, 255, 255); stroke: rgb(255, 255, 255); stroke-width: 0.487; transform-origin: 282.479px 178.114px;" transform="matrix(0.588452, -0.808532, -0.145086, 1.898722, -194.916291, -22.52292)"/>
  </g>
</svg>