<?xml version="1.0" encoding="utf-8"?>
<svg id="svg2" viewBox="0 0 387.81 383.8" xmlns="http://www.w3.org/2000/svg" style="">
  <desc>Source: openclipart.org/detail/209545</desc>
  <defs>
    <path id="path-0" style="fill: none;" d="M 203.295 200.953 C 249.844 206.313 271.943 279.353 294.786 302.195 L 295.931 302.195"/>
    <path id="path-1" style="fill: none;" d="M 203.295 200.953 C 249.844 206.313 271.943 279.353 294.786 302.195 L 295.931 302.195"/>
    <view id="view-1" viewBox="452.768 462.467 5.724 4.579">
      <title>View 1</title>
    </view>
  </defs>
  <ellipse style="stroke-width: 1; stroke: rgb(255, 255, 255); fill: rgb(255, 255, 255);" cx="264.952" cy="96.887" rx="41.239" ry="30.597"/>
  <ellipse style="stroke-width: 1; stroke: rgb(255, 255, 255); fill: rgb(255, 255, 255);" cx="241.45" cy="158.08" rx="45.23" ry="26.163"/>
  <ellipse style="stroke-width: 1; stroke: rgb(255, 255, 255); fill: rgb(255, 255, 255);" cx="132.809" cy="302.639" rx="31.484" ry="33.257"/>
  <path style="stroke-width: 1; stroke: rgb(255, 255, 255); fill: rgb(255, 255, 255);" d="M 148.264 271.413 C 148.264 271.413 184.126 344.011 215.459 176.403 L 281.585 162.958 C 281.585 162.958 237.379 329.67 188.451 331.463"/>
  <path style="stroke-width: 1; stroke: rgb(255, 255, 255); fill: rgb(255, 255, 255);" d="M 94.229 311.953 C 94.229 311.953 131.091 387.833 212.183 319.036"/>
  <rect x="143.008" y="291.554" width="49.665" height="33.701" style="stroke-width: 1; stroke: rgb(255, 255, 255); fill: rgb(255, 255, 255);"/>
  <ellipse style="stroke: rgb(0, 208, 255); fill: rgb(0, 208, 255);" cx="244.11" cy="79.819" rx="41.239" ry="30.597"/>
  <ellipse style="stroke: rgb(0, 208, 255); fill: rgb(0, 208, 255);" cx="220.608" cy="141.012" rx="45.23" ry="26.163"/>
  <ellipse style="stroke: rgb(0, 208, 255); fill: rgb(0, 208, 255);" cx="109.686" cy="285.571" rx="33.765" ry="33.257"/>
  <path style="stroke: rgb(0, 208, 255); fill: rgb(0, 208, 255);" d="M 123.875 255.293 C 123.875 255.293 161.883 326.745 195.093 161.783 L 265.177 148.551 C 265.177 148.551 218.325 312.631 166.467 314.395"/>
  <path style="stroke: rgb(0, 208, 255); fill: rgb(0, 208, 255);" d="M 77.442 292.794 C 77.442 292.794 113.313 365.597 192.229 299.59"/>
  <rect x="122.166" y="274.486" width="49.665" height="33.701" style="stroke: rgb(0, 208, 255); fill: rgb(0, 208, 255);"/>
  <rect x="518.737" y="129.02" width="209.827" height="5.288" style="fill: rgb(255, 255, 255); stroke: rgb(255, 255, 255); transform-box: fill-box; transform-origin: 75.6753% 128.464%;" transform="matrix(0.552771, -0.833333, 0.108323, 1.645764, -439.460914, 54.264652)"/>
  <rect x="518.737" y="129.02" width="209.827" height="5.288" style="fill: rgb(255, 255, 255); stroke: rgb(255, 255, 255); stroke-width: 1; transform-origin: 677.524px 135.813px;" transform="matrix(0.552771, -0.833333, 0.108323, 1.645765, -451.518899, 73.113212)"/>
  <rect x="518.737" y="129.02" width="209.827" height="5.288" style="fill: rgb(255, 255, 255); stroke: rgb(255, 255, 255); stroke-width: 1; transform-origin: 677.524px 135.813px;" transform="matrix(0.552771, -0.833333, 0.108323, 1.645765, -439.10267, 54.489005)"/>
  <rect x="483.887" y="148.498" width="195.73" height="6.087" style="fill: rgb(255, 255, 255); stroke: rgb(255, 255, 255); stroke-width: 1; transform-origin: 632.006px 156.317px;" transform="matrix(0.552771, -0.833333, 0.108323, 1.645764, -388.865937, 56.656349)"/>
</svg>