<?xml version="1.0" encoding="utf-8"?>
<svg id="svg2" viewBox="91.663 180.306 272.214 264.887" xmlns="http://www.w3.org/2000/svg">
  <desc>Source: openclipart.org/detail/209545</desc>
  <defs>
    <path id="path-0" style="fill: none;" d="M 183.248 279.684 L 200.427 285.41 C 207.237 288.815 221.924 302.59 229.06 302.59"/>
    <path id="path-1" style="fill: none;" d="M 221.90166356159858 311.1793035812828 L 265.70763867760456 321.48673061721513"/>
    <path id="path-2" style="fill: none;" d="M 229.06 291.137 L 239.081 295.432 C 246.303 299.765 257.163 309.094 263.419 311.179"/>
    <path id="path-3" style="fill: none;" d="M 213.312 286.842 L 227.628 301.158 C 233.716 310.29 239.948 317.772 247.671 325.496"/>
    <path id="path-4" style="fill: none;" d="M 260.55554542007934 354.12801265772123 L 303.606519405218 341.2126810477155"/>
    <path id="path-5" style="fill: none;" d="M 203.295 200.953 C 249.844 206.313 271.943 279.353 294.786 302.195 L 295.931 302.195"/>
    <path id="path-6" style="fill: none;" d="M 203.295 200.953 C 249.844 206.313 271.943 279.353 294.786 302.195 L 295.931 302.195"/>
    <path id="path-7" style="fill: none;" d="M 203.295 200.953 C 249.844 206.313 271.943 279.353 294.786 302.195 L 295.931 302.195"/>
    <path id="path-8" style="fill: none;" d="M 203.295 200.953 C 249.844 206.313 271.943 279.353 294.786 302.195 L 295.931 302.195"/>
    <path id="path-9" style="fill: none;" d="M 183.248 279.684 L 200.427 285.41 C 207.237 288.815 221.924 302.59 229.06 302.59"/>
    <path id="path-10" style="fill: none;" d="M 221.90166356159858 311.1793035812828 L 265.70763867760456 321.48673061721513"/>
    <path id="path-11" style="fill: none;" d="M 229.06 291.137 L 239.081 295.432 C 246.303 299.765 257.163 309.094 263.419 311.179"/>
    <path id="path-12" style="fill: none;" d="M 213.312 286.842 L 227.628 301.158 C 233.716 310.29 239.948 317.772 247.671 325.496"/>
    <path id="path-13" style="fill: none;" d="M 260.55554542007934 354.12801265772123 L 303.606519405218 341.2126810477155"/>
    <path id="path-14" style="fill: none;" d="M 203.295 200.953 C 249.844 206.313 271.943 279.353 294.786 302.195 L 295.931 302.195"/>
    <path id="path-15" style="fill: none;" d="M 203.295 200.953 C 249.844 206.313 271.943 279.353 294.786 302.195 L 295.931 302.195"/>
    <path id="path-16" style="fill: none;" d="M 203.295 200.953 C 249.844 206.313 271.943 279.353 294.786 302.195 L 295.931 302.195"/>
    <path id="path-17" style="fill: none;" d="M 203.295 200.953 C 249.844 206.313 271.943 279.353 294.786 302.195 L 295.931 302.195"/>
  </defs>
  <path style="stroke-width: 1; stroke: rgb(255, 255, 255); fill: rgb(255, 255, 255);" d="M 176.249 218.44 C 176.249 218.44 293.676 185.761 354.487 212.993"/>
  <path style="stroke-width: 1; stroke: rgb(255, 255, 255); fill: rgb(255, 255, 255);" d="M 354.702 211.904 C 354.702 211.904 185.959 325.19 185.902 351.333 C 185.844 377.475 320.394 344.797 320.394 344.797 C 320.394 344.797 371.905 379.655 289.666 405.797 C 207.429 431.94 111.891 412.525 105.046 393.816 C 98.201 375.108 55.666 367.814 251.579 252.207 C 447.492 136.601 249.76 270.725 249.76 270.725 C 249.76 270.725 262.969 250.029 263.327 248.94 C 263.685 247.851 131.635 276.172 156.941 254.387 C 182.248 232.601 169.118 217.35 182.634 218.44"/>
  <path style="stroke: rgb(0, 208, 255); fill: rgb(0, 208, 255);" d="M 172.391 210.409 C 172.391 210.409 278.791 177.601 335.436 202.455"/>
  <path style="stroke: rgb(0, 208, 255); fill: rgb(0, 208, 255);" d="M 336.426 202.455 C 336.426 202.455 176.465 305.849 176.412 329.709 C 176.358 353.569 301.691 323.744 301.691 323.744 C 301.691 323.744 349.673 355.558 273.068 379.418 C 196.464 403.278 107.471 385.558 101.095 368.483 C 94.719 351.408 170.423 282.118 237.59 239.239 C 304.757 196.36 235.895 256.14 235.895 256.14 C 235.895 256.14 248.199 237.251 248.533 236.257 C 248.866 235.263 125.862 261.111 149.435 241.228 C 173.008 221.345 160.778 207.425 173.368 208.42"/>
  <rect x="229.809" y="73.098" width="9.394" height="82.517" style="fill: rgb(255, 255, 255); stroke: rgb(255, 255, 255);" transform="matrix(1, 0, -0.510966, 1, 45.528961, 260.587158)"/>
  <rect x="268.701" y="51.082" width="10.983" height="57.663" style="fill: rgb(255, 255, 255); stroke: rgb(255, 255, 255); stroke-width: 1;" transform="matrix(1, 0, -0.414374, 1, 24.267036, 172.749023)"/>
  <rect x="268.701" y="51.082" width="10.983" height="57.663" style="fill: rgb(255, 255, 255); stroke: rgb(255, 255, 255); stroke-width: 1;" transform="matrix(1, 0, -0.414374, 1, 37.689468, 141.430603)"/>
</svg>